<svg width="109" height="73" viewBox="0 0 109 73" fill="none" xmlns="http://www.w3.org/2000/svg">
<path d="M4.62497 1.125L10.6818 19.4432H10.9204L16.9659 1.125H21.6022L13.3977 24.3977H8.19315L-2.77162e-05 1.125H4.62497ZM26.736 24.75C25.6299 24.75 24.6337 24.553 23.7474 24.1591C22.8686 23.7576 22.1716 23.1667 21.6565 22.3864C21.1489 21.6061 20.8951 20.6439 20.8951 19.5C20.8951 18.5152 21.0769 17.7008 21.4405 17.0568C21.8042 16.4129 22.3004 15.8977 22.9292 15.5114C23.558 15.125 24.2663 14.8333 25.0542 14.6364C25.8496 14.4318 26.6716 14.2841 27.5201 14.1932C28.5428 14.0871 29.3724 13.9924 30.0087 13.9091C30.6451 13.8182 31.1072 13.6818 31.3951 13.5C31.6905 13.3106 31.8383 13.0189 31.8383 12.625V12.5568C31.8383 11.7008 31.5845 11.0379 31.0769 10.5682C30.5693 10.0985 29.8383 9.86364 28.8837 9.86364C27.8761 9.86364 27.0769 10.0833 26.486 10.5227C25.9027 10.9621 25.5087 11.4811 25.3042 12.0795L21.4633 11.5341C21.7663 10.4735 22.2663 9.58712 22.9633 8.875C23.6602 8.1553 24.5125 7.61742 25.5201 7.26136C26.5277 6.89773 27.6413 6.71591 28.861 6.71591C29.7019 6.71591 30.539 6.81439 31.3724 7.01136C32.2057 7.20833 32.9671 7.53409 33.6565 7.98864C34.3458 8.43561 34.8989 9.04545 35.3155 9.81818C35.7398 10.5909 35.9519 11.5568 35.9519 12.7159V24.3977H31.9974V22H31.861C31.611 22.4848 31.2587 22.9394 30.8042 23.3636C30.3572 23.7803 29.7928 24.1174 29.111 24.375C28.4368 24.625 27.6451 24.75 26.736 24.75ZM27.8042 21.7273C28.6299 21.7273 29.3458 21.5644 29.9519 21.2386C30.558 20.9053 31.0239 20.4659 31.3496 19.9205C31.683 19.375 31.8496 18.7803 31.8496 18.1364V16.0795C31.7208 16.1856 31.5011 16.2841 31.1905 16.375C30.8875 16.4659 30.5466 16.5455 30.1678 16.6136C29.789 16.6818 29.414 16.7424 29.0428 16.7955C28.6716 16.8485 28.3496 16.8939 28.0769 16.9318C27.4633 17.0152 26.914 17.1515 26.4292 17.3409C25.9443 17.5303 25.5618 17.7955 25.2815 18.1364C25.0011 18.4697 24.861 18.9015 24.861 19.4318C24.861 20.1894 25.1375 20.7614 25.6905 21.1477C26.2436 21.5341 26.9481 21.7273 27.8042 21.7273ZM52.9237 11.5568L49.1737 11.9659C49.0677 11.5871 48.8821 11.2311 48.6169 10.8977C48.3593 10.5644 48.0108 10.2955 47.5715 10.0909C47.1321 9.88636 46.5942 9.78409 45.9578 9.78409C45.1018 9.78409 44.3821 9.9697 43.7987 10.3409C43.223 10.7121 42.9389 11.1932 42.9465 11.7841C42.9389 12.2917 43.1245 12.7045 43.5033 13.0227C43.8896 13.3409 44.526 13.6023 45.4124 13.8068L48.3896 14.4432C50.0411 14.7992 51.2684 15.3636 52.0715 16.1364C52.8821 16.9091 53.2911 17.9205 53.2987 19.1705C53.2911 20.2689 52.9692 21.2386 52.3328 22.0795C51.704 22.9129 50.829 23.5644 49.7078 24.0341C48.5866 24.5038 47.2987 24.7386 45.8442 24.7386C43.7078 24.7386 41.9881 24.2917 40.6851 23.3977C39.3821 22.4962 38.6055 21.2424 38.3555 19.6364L42.3669 19.25C42.5487 20.0379 42.9351 20.6326 43.526 21.0341C44.1169 21.4356 44.8858 21.6364 45.8328 21.6364C46.8101 21.6364 47.5942 21.4356 48.1851 21.0341C48.7836 20.6326 49.0828 20.1364 49.0828 19.5455C49.0828 19.0455 48.8896 18.6326 48.5033 18.3068C48.1245 17.9811 47.5336 17.7311 46.7305 17.5568L43.7533 16.9318C42.079 16.5833 40.8404 15.9962 40.0374 15.1705C39.2343 14.3371 38.8366 13.2841 38.8442 12.0114C38.8366 10.9356 39.1283 10.0038 39.7192 9.21591C40.3177 8.42045 41.1472 7.80682 42.2078 7.375C43.276 6.93561 44.5071 6.71591 45.901 6.71591C47.9465 6.71591 49.5563 7.15152 50.7305 8.02273C51.9124 8.89394 52.6434 10.072 52.9237 11.5568ZM55.7308 24.3977V6.94318H59.8444V24.3977H55.7308ZM57.7989 4.46591C57.1474 4.46591 56.5868 4.25 56.1171 3.81818C55.6474 3.37879 55.4126 2.85227 55.4126 2.23864C55.4126 1.61742 55.6474 1.09091 56.1171 0.65909C56.5868 0.219697 57.1474 0 57.7989 0C58.458 0 59.0186 0.219697 59.4808 0.65909C59.9505 1.09091 60.1853 1.61742 60.1853 2.23864C60.1853 2.85227 59.9505 3.37879 59.4808 3.81818C59.0186 4.25 58.458 4.46591 57.7989 4.46591ZM67.2282 1.125V24.3977H63.1145V1.125H67.2282ZM70.4983 24.3977V6.94318H74.6119V24.3977H70.4983ZM72.5664 4.46591C71.9149 4.46591 71.3543 4.25 70.8846 3.81818C70.4149 3.37879 70.1801 2.85227 70.1801 2.23864C70.1801 1.61742 70.4149 1.09091 70.8846 0.65909C71.3543 0.219697 71.9149 0 72.5664 0C73.2255 0 73.7861 0.219697 74.2483 0.65909C74.718 1.09091 74.9528 1.61742 74.9528 2.23864C74.9528 2.85227 74.718 3.37879 74.2483 3.81818C73.7861 4.25 73.2255 4.46591 72.5664 4.46591ZM91.6775 11.5568L87.9275 11.9659C87.8214 11.5871 87.6358 11.2311 87.3707 10.8977C87.1131 10.5644 86.7646 10.2955 86.3252 10.0909C85.8858 9.88636 85.3479 9.78409 84.7116 9.78409C83.8555 9.78409 83.1358 9.9697 82.5525 10.3409C81.9767 10.7121 81.6926 11.1932 81.7002 11.7841C81.6926 12.2917 81.8782 12.7045 82.257 13.0227C82.6434 13.3409 83.2797 13.6023 84.1661 13.8068L87.1434 14.4432C88.7949 14.7992 90.0222 15.3636 90.8252 16.1364C91.6358 16.9091 92.0449 17.9205 92.0525 19.1705C92.0449 20.2689 91.7229 21.2386 91.0866 22.0795C90.4578 22.9129 89.5828 23.5644 88.4616 24.0341C87.3403 24.5038 86.0525 24.7386 84.5979 24.7386C82.4616 24.7386 80.7419 24.2917 79.4388 23.3977C78.1358 22.4962 77.3593 21.2424 77.1093 19.6364L81.1207 19.25C81.3025 20.0379 81.6888 20.6326 82.2797 21.0341C82.8707 21.4356 83.6396 21.6364 84.5866 21.6364C85.5638 21.6364 86.3479 21.4356 86.9388 21.0341C87.5373 20.6326 87.8366 20.1364 87.8366 19.5455C87.8366 19.0455 87.6434 18.6326 87.257 18.3068C86.8782 17.9811 86.2873 17.7311 85.4843 17.5568L82.507 16.9318C80.8328 16.5833 79.5941 15.9962 78.7911 15.1705C77.9881 14.3371 77.5903 13.2841 77.5979 12.0114C77.5903 10.9356 77.882 10.0038 78.4729 9.21591C79.0714 8.42045 79.901 7.80682 80.9616 7.375C82.0297 6.93561 83.2608 6.71591 84.6547 6.71591C86.7002 6.71591 88.31 7.15152 89.4843 8.02273C90.6661 8.89394 91.3972 10.072 91.6775 11.5568ZM99.5072 24.75C98.4012 24.75 97.405 24.553 96.5186 24.1591C95.6398 23.7576 94.9428 23.1667 94.4277 22.3864C93.9201 21.6061 93.6663 20.6439 93.6663 19.5C93.6663 18.5152 93.8482 17.7008 94.2118 17.0568C94.5754 16.4129 95.0716 15.8977 95.7004 15.5114C96.3292 15.125 97.0375 14.8333 97.8254 14.6364C98.6209 14.4318 99.4429 14.2841 100.291 14.1932C101.314 14.0871 102.144 13.9924 102.78 13.9091C103.416 13.8182 103.878 13.6818 104.166 13.5C104.462 13.3106 104.61 13.0189 104.61 12.625V12.5568C104.61 11.7008 104.356 11.0379 103.848 10.5682C103.341 10.0985 102.61 9.86364 101.655 9.86364C100.647 9.86364 99.8482 10.0833 99.2572 10.5227C98.6739 10.9621 98.28 11.4811 98.0754 12.0795L94.2345 11.5341C94.5375 10.4735 95.0375 9.58712 95.7345 8.875C96.4315 8.1553 97.2838 7.61742 98.2913 7.26136C99.2989 6.89773 100.413 6.71591 101.632 6.71591C102.473 6.71591 103.31 6.81439 104.144 7.01136C104.977 7.20833 105.738 7.53409 106.428 7.98864C107.117 8.43561 107.67 9.04545 108.087 9.81818C108.511 10.5909 108.723 11.5568 108.723 12.7159V24.3977H104.769V22H104.632C104.382 22.4848 104.03 22.9394 103.575 23.3636C103.128 23.7803 102.564 24.1174 101.882 24.375C101.208 24.625 100.416 24.75 99.5072 24.75ZM100.575 21.7273C101.401 21.7273 102.117 21.5644 102.723 21.2386C103.329 20.9053 103.795 20.4659 104.121 19.9205C104.454 19.375 104.621 18.7803 104.621 18.1364V16.0795C104.492 16.1856 104.272 16.2841 103.962 16.375C103.659 16.4659 103.318 16.5455 102.939 16.6136C102.56 16.6818 102.185 16.7424 101.814 16.7955C101.443 16.8485 101.121 16.8939 100.848 16.9318C100.235 17.0152 99.6853 17.1515 99.2004 17.3409C98.7156 17.5303 98.333 17.7955 98.0527 18.1364C97.7724 18.4697 97.6322 18.9015 97.6322 19.4318C97.6322 20.1894 97.9088 20.7614 98.4618 21.1477C99.0148 21.5341 99.7194 21.7273 100.575 21.7273ZM4.62497 49.125L10.6818 67.4432H10.9204L16.9659 49.125H21.6022L13.3977 72.3977H8.19315L-2.77162e-05 49.125H4.62497ZM23.5258 72.3977V54.9432H27.6394V72.3977H23.5258ZM25.594 52.4659C24.9424 52.4659 24.3818 52.25 23.9121 51.8182C23.4424 51.3788 23.2076 50.8523 23.2076 50.2386C23.2076 49.6174 23.4424 49.0909 23.9121 48.6591C24.3818 48.2197 24.9424 48 25.594 48C26.253 48 26.8136 48.2197 27.2758 48.6591C27.7455 49.0909 27.9803 49.6174 27.9803 50.2386C27.9803 50.8523 27.7455 51.3788 27.2758 51.8182C26.8136 52.25 26.253 52.4659 25.594 52.4659ZM30.9095 72.3977V54.9432H34.8982V57.8523H35.08C35.3982 56.8447 35.9436 56.0682 36.7163 55.5227C37.4966 54.9697 38.3868 54.6932 39.3868 54.6932C39.6141 54.6932 39.8679 54.7045 40.1482 54.7273C40.436 54.7424 40.6747 54.7689 40.8641 54.8068V58.5909C40.6898 58.5303 40.4133 58.4773 40.0345 58.4318C39.6633 58.3788 39.3035 58.3523 38.955 58.3523C38.205 58.3523 37.5307 58.5152 36.9322 58.8409C36.3413 59.1591 35.8754 59.6023 35.5345 60.1705C35.1936 60.7386 35.0232 61.3939 35.0232 62.1364V72.3977H30.9095ZM49.5319 72.7386C47.8274 72.7386 46.3501 72.3636 45.1001 71.6136C43.8501 70.8636 42.8804 69.8144 42.191 68.4659C41.5092 67.1174 41.1683 65.5417 41.1683 63.7386C41.1683 61.9356 41.5092 60.3561 42.191 59C42.8804 57.6439 43.8501 56.5909 45.1001 55.8409C46.3501 55.0909 47.8274 54.7159 49.5319 54.7159C51.2364 54.7159 52.7137 55.0909 53.9637 55.8409C55.2137 56.5909 56.1796 57.6439 56.8614 59C57.5508 60.3561 57.8955 61.9356 57.8955 63.7386C57.8955 65.5417 57.5508 67.1174 56.8614 68.4659C56.1796 69.8144 55.2137 70.8636 53.9637 71.6136C52.7137 72.3636 51.2364 72.7386 49.5319 72.7386ZM49.5546 69.4432C50.4789 69.4432 51.2516 69.1894 51.8728 68.6818C52.494 68.1667 52.9561 67.4773 53.2592 66.6136C53.5698 65.75 53.7251 64.7879 53.7251 63.7273C53.7251 62.6591 53.5698 61.6932 53.2592 60.8295C52.9561 59.9583 52.494 59.2652 51.8728 58.75C51.2516 58.2348 50.4789 57.9773 49.5546 57.9773C48.6077 57.9773 47.8198 58.2348 47.191 58.75C46.5698 59.2652 46.1039 59.9583 45.7933 60.8295C45.4902 61.6932 45.3387 62.6591 45.3387 63.7273C45.3387 64.7879 45.4902 65.75 45.7933 66.6136C46.1039 67.4773 46.5698 68.1667 47.191 68.6818C47.8198 69.1894 48.6077 69.4432 49.5546 69.4432ZM75.4242 54.9432L69.2083 72.3977H64.6628L58.4469 54.9432H62.8333L66.8446 67.9091H67.0264L71.0492 54.9432H75.4242ZM81.0608 66.9205L81.0494 61.9545H81.7085L87.9812 54.9432H92.788L85.0721 63.5341H84.2199L81.0608 66.9205ZM77.3108 72.3977V49.125H81.4244V72.3977H77.3108ZM88.2653 72.3977L82.5835 64.4545L85.3562 61.5568L93.1858 72.3977H88.2653ZM99.5922 72.75C98.4862 72.75 97.49 72.553 96.6036 72.1591C95.7248 71.7576 95.0278 71.1667 94.5127 70.3864C94.0051 69.6061 93.7513 68.6439 93.7513 67.5C93.7513 66.5152 93.9332 65.7008 94.2968 65.0568C94.6604 64.4129 95.1566 63.8977 95.7854 63.5114C96.4142 63.125 97.1225 62.8333 97.9104 62.6364C98.7059 62.4318 99.5278 62.2841 100.376 62.1932C101.399 62.0871 102.229 61.9924 102.865 61.9091C103.501 61.8182 103.963 61.6818 104.251 61.5C104.547 61.3106 104.695 61.0189 104.695 60.625V60.5568C104.695 59.7008 104.441 59.0379 103.933 58.5682C103.426 58.0985 102.695 57.8636 101.74 57.8636C100.732 57.8636 99.9332 58.0833 99.3422 58.5227C98.7589 58.9621 98.365 59.4811 98.1604 60.0795L94.3195 59.5341C94.6225 58.4735 95.1225 57.5871 95.8195 56.875C96.5165 56.1553 97.3688 55.6174 98.3763 55.2614C99.3839 54.8977 100.498 54.7159 101.717 54.7159C102.558 54.7159 103.395 54.8144 104.229 55.0114C105.062 55.2083 105.823 55.5341 106.513 55.9886C107.202 56.4356 107.755 57.0455 108.172 57.8182C108.596 58.5909 108.808 59.5568 108.808 60.7159V72.3977H104.854V70H104.717C104.467 70.4848 104.115 70.9394 103.66 71.3636C103.213 71.7803 102.649 72.1174 101.967 72.375C101.293 72.625 100.501 72.75 99.5922 72.75ZM100.66 69.7273C101.486 69.7273 102.202 69.5644 102.808 69.2386C103.414 68.9053 103.88 68.4659 104.206 67.9205C104.539 67.375 104.706 66.7803 104.706 66.1364V64.0795C104.577 64.1856 104.357 64.2841 104.047 64.375C103.744 64.4659 103.403 64.5455 103.024 64.6136C102.645 64.6818 102.27 64.7424 101.899 64.7955C101.528 64.8485 101.206 64.8939 100.933 64.9318C100.32 65.0152 99.7703 65.1515 99.2854 65.3409C98.8006 65.5303 98.418 65.7955 98.1377 66.1364C97.8574 66.4697 97.7172 66.9015 97.7172 67.4318C97.7172 68.1894 97.9938 68.7614 98.5468 69.1477C99.0998 69.5341 99.8044 69.7273 100.66 69.7273Z" fill="#1A202C"/>
</svg>
