<svg xmlns="http://www.w3.org/2000/svg" width="52" height="52" fill="none" viewBox="0 0 52 52"><rect width="51.452" height="51.452" fill="#c4c4c4" rx="10" transform="matrix(-1 0 0 1 51.452 0)"/><g clip-path="url(#a)"><path fill="#fff" d="m21.067 14.533 1.256-.402c1.177-.376 2.435.232 2.939 1.42l1.003 2.366c.436 1.03.194 2.242-.6 2.996l-2.21 2.098q.204 1.882 1.265 3.706a10.1 10.1 0 0 0 2.649 3.028l2.655-.887c1.005-.335 2.102.051 2.718.958l1.439 2.111c.717 1.055.588 2.509-.302 3.403l-.954.957c-.95.953-2.306 1.3-3.56.908q-4.444-1.386-8.17-8.228-3.733-6.855-2.635-11.63c.308-1.34 1.261-2.407 2.507-2.804"/></g><defs><clipPath id="a"><path fill="#fff" d="M12 11.687h28v28H12z"/></clipPath></defs></svg>