<svg xmlns="http://www.w3.org/2000/svg" width="52" height="52" fill="none" viewBox="0 0 52 52"><rect width="51.452" height="51.452" fill="#c4c4c4" rx="10" transform="matrix(-1 0 0 1 51.452 0)"/><path fill="#fff" d="M27.477 40.666a40.6 40.6 0 0 0 4.738-4.838c2.166-2.618 4.738-6.517 4.738-10.233a9.67 9.67 0 0 0-1.596-5.33 9.5 9.5 0 0 0-4.254-3.535 9.37 9.37 0 0 0-5.477-.545 9.44 9.44 0 0 0-4.853 2.627 9.5 9.5 0 0 0-2.058 3.11A9.6 9.6 0 0 0 18 25.596c0 3.716 2.572 7.615 4.738 10.233a40.6 40.6 0 0 0 4.739 4.838m0-19.18c1.077 0 2.11.432 2.871 1.203a4.14 4.14 0 0 1 1.19 2.906c0 1.09-.428 2.136-1.19 2.907a4.04 4.04 0 0 1-2.871 1.204 4.04 4.04 0 0 1-2.872-1.204 4.14 4.14 0 0 1-1.19-2.907c0-1.09.428-2.135 1.19-2.906a4.04 4.04 0 0 1 2.872-1.204"/></svg>