<svg xmlns="http://www.w3.org/2000/svg" width="52" height="52" fill="none" viewBox="0 0 52 52"><rect width="51.452" height="51.452" fill="#c4c4c4" rx="10" transform="matrix(-1 0 0 1 51.452 0)"/><g fill="#fff" clip-path="url(#a)"><path d="M34.976 17.726h-6c-.412 0-.989.24-1.28.53l-7.439 7.44a.75.75 0 0 0 0 1.06l6.44 6.44a.75.75 0 0 0 1.06 0l7.44-7.44c.291-.292.53-.868.53-1.28v-6a.75.75 0 0 0-.75-.75m-3.75 6a1.502 1.502 0 0 1-1.386-2.075 1.501 1.501 0 1 1 1.386 2.075"/><path d="m17.726 26.226 8.5-8.5h-1.25c-.412 0-.989.24-1.28.53l-7.439 7.44a.75.75 0 0 0 0 1.06l6.44 6.44a.75.75 0 0 0 1.06 0l.47-.47-6.5-6.5"/></g><defs><clipPath id="a"><path fill="#fff" d="M15.726 17.726h20v16h-20z"/></clipPath></defs></svg>